HIERARCHY
ROOT Hips
{
  OFFSET 13.9192 87.0099 7.45665
  CHANNELS 6 Xposition Yposition Zposition Zrotation Xrotation Yrotation
  JOINT RightUpLeg
  {
    OFFSET -9.25892 -1.51126 0.0103963
    CHANNELS 3 Zrotation Xrotation Yrotation
    JOINT RightLeg
    {
      OFFSET -0.0493687 -41.9019 0.103893
      CHANNELS 3 Zrotation Xrotation Yrotation
      JOINT RightFoot
      {
        OFFSET -1.32222 -41.6903 -0.651221
        CHANNELS 3 Zrotation Xrotation Yrotation
        End Site
        {
          OFFSET 0 -7.69 17.5
        }
      }
    }
  }
  JOINT LeftUpLeg
  {
    OFFSET 9.27814 -1.57439 0.0532125
    CHANNELS 3 Zrotation Xrotation Yrotation
    JOINT LeftLeg
    {
      OFFSET 0.0812204 -41.881 0.0464493
      CHANNELS 3 Zrotation Xrotation Yrotation
      JOINT LeftFoot
      {
        OFFSET -0.0110097 -42.3775 0.673629
        CHANNELS 3 Zrotation Xrotation Yrotation
        End Site
        {
          OFFSET 0 -7.69 17.5
        }
      }
    }
  }
  JOINT Spine
  {
    OFFSET 0.0235844 14.3019 0.0112981
    CHANNELS 3 Zrotation Xrotation Yrotation
    JOINT Spine1
    {
      OFFSET 0.0175769 9.71285 0.00895779
      CHANNELS 3 Zrotation Xrotation Yrotation
      JOINT Spine2
      {
        OFFSET 0.0285364 10.1117 0.00103808
        CHANNELS 3 Zrotation Xrotation Yrotation
        JOINT Spine3
        {
          OFFSET 0.0259409 9.72657 0.0104237
          CHANNELS 3 Zrotation Xrotation Yrotation
          JOINT Neck
          {
            OFFSET -0.0111787 10.3773 0.0255796
            CHANNELS 3 Zrotation Xrotation Yrotation
            JOINT Head
            {
              OFFSET -0.00267722 9.48908 0.0510269
              CHANNELS 3 Zrotation Xrotation Yrotation
              End Site
              {
                OFFSET 0 15.95 0
              }
            }
          }
          JOINT RightShoulder
          {
            OFFSET -3.1909 6.94591 0.0199124
            CHANNELS 3 Zrotation Xrotation Yrotation
            JOINT RightArm
            {
              OFFSET -12.7524 0.0197095 0.0110528
              CHANNELS 3 Zrotation Xrotation Yrotation
              JOINT RightForeArm
              {
                OFFSET -26.4891 -0.0606575 0.0254635
                CHANNELS 3 Zrotation Xrotation Yrotation
                JOINT RightHand
                {
                  OFFSET -26.017 -0.0465962 -0.00264686
                  CHANNELS 3 Zrotation Xrotation Yrotation
                  JOINT RightHandThumb1
                  {
                    OFFSET -2.48905 0.190105 3.12053
                    CHANNELS 3 Zrotation Xrotation Yrotation
                    JOINT RightHandThumb2
                    {
                      OFFSET -3.68274 0 0
                      CHANNELS 3 Zrotation Xrotation Yrotation
                      JOINT RightHandThumb3
                      {
                        OFFSET -2.55832 0 0
                        CHANNELS 3 Zrotation Xrotation Yrotation
                        End Site
                        {
                          OFFSET -2.194 0 0
                        }
                      }
                    }
                  }
                  JOINT RightInHandIndex
                  {
                    OFFSET -3.22368 0.508421 1.97842
                    CHANNELS 3 Zrotation Xrotation Yrotation
                    JOINT RightHandIndex1
                    {
                      OFFSET -5.21684 -0.091368 0.999158
                      CHANNELS 3 Zrotation Xrotation Yrotation
                      JOINT RightHandIndex2
                      {
                        OFFSET -3.61937 0 0
                        CHANNELS 3 Zrotation Xrotation Yrotation
                        JOINT RightHandIndex3
                        {
                          OFFSET -2.0521 0 0
                          CHANNELS 3 Zrotation Xrotation Yrotation
                          End Site
                          {
                            OFFSET -1.805 0 0
                          }
                        }
                      }
                    }
                  }
                  JOINT RightInHandMiddle
                  {
                    OFFSET -3.38211 0.517263 0.756737
                    CHANNELS 3 Zrotation Xrotation Yrotation
                    JOINT RightHandMiddle1
                    {
                      OFFSET -5.17411 -0.084 0.313895
                      CHANNELS 3 Zrotation Xrotation Yrotation
                      JOINT RightHandMiddle2
                      {
                        OFFSET -3.94947 0 0
                        CHANNELS 3 Zrotation Xrotation Yrotation
                        JOINT RightHandMiddle3
                        {
                          OFFSET -2.47579 0 0
                          CHANNELS 3 Zrotation Xrotation Yrotation
                          End Site
                          {
                            OFFSET -1.975 0 0
                          }
                        }
                      }
                    }
                  }
                  JOINT RightInHandRing
                  {
                    OFFSET -3.36516 0.537895 -0.128947
                    CHANNELS 3 Zrotation Xrotation Yrotation
                    JOINT RightHandRing1
                    {
                      OFFSET -4.63474 -0.022105 -0.478947
                      CHANNELS 3 Zrotation Xrotation Yrotation
                      JOINT RightHandRing2
                      {
                        OFFSET -3.44238 0 0
                        CHANNELS 3 Zrotation Xrotation Yrotation
                        JOINT RightHandRing3
                        {
                          OFFSET -2.3881 0 0
                          CHANNELS 3 Zrotation Xrotation Yrotation
                          End Site
                          {
                            OFFSET -1.857 0 0
                          }
                        }
                      }
                    }
                  }
                  JOINT RightInHandPinky
                  {
                    OFFSET -3.16105 0.469368 -1.20179
                    CHANNELS 3 Zrotation Xrotation Yrotation
                    JOINT RightHandPinky1
                    {
                      OFFSET -4.14105 -0.022105 -1.09053
                      CHANNELS 3 Zrotation Xrotation Yrotation
                      JOINT RightHandPinky2
                      {
                        OFFSET -2.75653 0 0
                        CHANNELS 3 Zrotation Xrotation Yrotation
                        JOINT RightHandPinky3
                        {
                          OFFSET -1.74189 0 0
                          CHANNELS 3 Zrotation Xrotation Yrotation
                          End Site
                          {
                            OFFSET -1.645 0 0
                          }
                        }
                      }
                    }
                  }
                }
              }
            }
          }
          JOINT LeftShoulder
          {
            OFFSET 3.2161 6.92611 -0.00186679
            CHANNELS 3 Zrotation Xrotation Yrotation
            JOINT LeftArm
            {
              OFFSET 12.7484 -0.0283569 -0.0302446
              CHANNELS 3 Zrotation Xrotation Yrotation
              JOINT LeftForeArm
              {
                OFFSET 26.4766 -0.0880322 -0.0033192
                CHANNELS 3 Zrotation Xrotation Yrotation
                JOINT LeftHand
                {
                  OFFSET 26.0079 -0.0456134 -0.0735001
                  CHANNELS 3 Zrotation Xrotation Yrotation
                  JOINT LeftHandThumb1
                  {
                    OFFSET 2.48905 0.190105 3.12053
                    CHANNELS 3 Zrotation Xrotation Yrotation
                    JOINT LeftHandThumb2
                    {
                      OFFSET 3.68274 0 0
                      CHANNELS 3 Zrotation Xrotation Yrotation
                      JOINT LeftHandThumb3
                      {
                        OFFSET 2.55832 0 0
                        CHANNELS 3 Zrotation Xrotation Yrotation
                        End Site
                        {
                          OFFSET 2.194 0 0
                        }
                      }
                    }
                  }
                  JOINT LeftInHandIndex
                  {
                    OFFSET 3.22368 0.508421 1.97842
                    CHANNELS 3 Zrotation Xrotation Yrotation
                    JOINT LeftHandIndex1
                    {
                      OFFSET 5.21684 -0.091368 0.999158
                      CHANNELS 3 Zrotation Xrotation Yrotation
                      JOINT LeftHandIndex2
                      {
                        OFFSET 3.61937 0 0
                        CHANNELS 3 Zrotation Xrotation Yrotation
                        JOINT LeftHandIndex3
                        {
                          OFFSET 2.0521 0 0
                          CHANNELS 3 Zrotation Xrotation Yrotation
                          End Site
                          {
                            OFFSET 1.805 0 0
                          }
                        }
                      }
                    }
                  }
                  JOINT LeftInHandMiddle
                  {
                    OFFSET 3.38211 0.517263 0.756737
                    CHANNELS 3 Zrotation Xrotation Yrotation
                    JOINT LeftHandMiddle1
                    {
                      OFFSET 5.17411 -0.084 0.313895
                      CHANNELS 3 Zrotation Xrotation Yrotation
                      JOINT LeftHandMiddle2
                      {
                        OFFSET 3.94947 0 0
                        CHANNELS 3 Zrotation Xrotation Yrotation
                        JOINT LeftHandMiddle3
                        {
                          OFFSET 2.47579 0 0
                          CHANNELS 3 Zrotation Xrotation Yrotation
                          End Site
                          {
                            OFFSET 1.975 0 0
                          }
                        }
                      }
                    }
                  }
                  JOINT LeftInHandRing
                  {
                    OFFSET 3.36516 0.537895 -0.128947
                    CHANNELS 3 Zrotation Xrotation Yrotation
                    JOINT LeftHandRing1
                    {
                      OFFSET 4.63474 -0.022105 -0.478947
                      CHANNELS 3 Zrotation Xrotation Yrotation
                      JOINT LeftHandRing2
                      {
                        OFFSET 3.44238 0 0
                        CHANNELS 3 Zrotation Xrotation Yrotation
                        JOINT LeftHandRing3
                        {
                          OFFSET 2.3881 0 0
                          CHANNELS 3 Zrotation Xrotation Yrotation
                          End Site
                          {
                            OFFSET 1.857 0 0
                          }
                        }
                      }
                    }
                  }
                  JOINT LeftInHandPinky
                  {
                    OFFSET 3.16105 0.469368 -1.20179
                    CHANNELS 3 Zrotation Xrotation Yrotation
                    JOINT LeftHandPinky1
                    {
                      OFFSET 4.14105 -0.022105 -1.09053
                      CHANNELS 3 Zrotation Xrotation Yrotation
                      JOINT LeftHandPinky2
                      {
                        OFFSET 2.75653 0 0
                        CHANNELS 3 Zrotation Xrotation Yrotation
                        JOINT LeftHandPinky3
                        {
                          OFFSET 1.74189 0 0
                          CHANNELS 3 Zrotation Xrotation Yrotation
                          End Site
                          {
                            OFFSET 1.645 0 0
                          }
                        }
                      }
                    }
                  }
                }
              }
            }
          }
        }
      }
    }
  }
}
MOTION
Frames: 3
Frame Time: 0.00833333
2.999951671118519130e+02 -3.588284776104713660e-03 5.814838891671923922e-03 -5.941965778494723120e-03 3.618244641106761056e-03 -4.572668966076204496e-03 -2.519977428435259126e-02 -1.081454044997505779e-04 -2.392326080007038669e-02 2.189282464534107395e-02 1.596234554572872888e-02 -8.925963003401520685e-03 3.931661543753866292e-04 -1.790457495234929267e-02 8.390841553078016990e-03 -4.004522353976627813e-02 -1.062223852704864170e-02 2.235293110427815158e-02 6.137784984977555369e-02 1.050977981625135678e-02 -8.254734070482704078e-02 -3.580545739597563071e-04 -9.415354792790731411e-03 1.161818454521662547e-02 5.370880124384623533e-02 3.224621156894211162e-03 -1.175849131371599493e-01 1.104590062899524737e-02 -1.449218485530161162e-03 -2.801151054913144159e-02 1.856819865106753772e-02 -3.223572138997994607e-03 -4.665654889856511722e-02 -5.780893834858847474e-03 -3.468354155336649675e-04 9.837183386106292116e-03 -6.233434397422292494e-03 -3.843721327936299456e-04 1.390569888817411864e-02 -1.137302924299179868e-01 -1.120296292155692139e-02 1.730120956575625091e-01 -8.503766924693340057e-02 3.550188817517550138e-02 1.836679482410393804e-01 5.984885821058489458e-02 -9.592626056134287427e-02 -3.248567362317440060e-02 1.131264770356648908e-01 3.405160559157590083e-01 -4.243225599478118309e-02 8.845687413357011808e-02 -1.248039836050315737e-01 2.175215866338417806e-02 0.000000000000000000e+00 0.000000000000000000e+00 0.000000000000000000e+00 1.582221546079438824e-15 -1.417692232070002925e-15 0.000000000000000000e+00 -7.116070169654145680e-15 9.628701516304918497e-16 0.000000000000000000e+00 2.142397119221087410e-15 4.113183380268488508e-15 -8.379682128854510591e-16 0.000000000000000000e+00 0.000000000000000000e+00 0.000000000000000000e+00 0.000000000000000000e+00 6.008633752898437168e-16 -2.186793921284410966e-15 0.000000000000000000e+00 5.126762938626271575e-17 1.671503558118605981e-15 2.142397119221087410e-15 4.113183380268488508e-15 -8.379682128854510591e-16 0.000000000000000000e+00 6.140453808847354233e-15 -1.800830364720134289e-15 0.000000000000000000e+00 2.628558084781477452e-15 3.176969931484315989e-15 0.000000000000000000e+00 2.017140063794103354e-16 -2.105204995961751762e-16 2.142397119221087410e-15 4.113183380268488508e-15 -8.379682128854510591e-16 0.000000000000000000e+00 0.000000000000000000e+00 0.000000000000000000e+00 0.000000000000000000e+00 -4.451435876130359938e-16 7.047177346108966802e-16 0.000000000000000000e+00 3.658998999508334630e-16 6.045056152963930638e-15 2.142397119221087410e-15 4.113183380268488508e-15 -8.379682128854510591e-16 0.000000000000000000e+00 0.000000000000000000e+00 0.000000000000000000e+00 0.000000000000000000e+00 5.094021069333403755e-16 6.249152476851256703e-15 0.000000000000000000e+00 -2.259315503273339101e-15 -3.504291783091778668e-15 -8.986093216358184699e-02 -2.220850782966205320e-02 1.487345055622260326e-01 1.066089193291926834e-01 -6.742100973992135038e-02 -4.676588041593235379e-02 -1.571247502450490829e+00 -1.190024730182652479e-01 -1.491363406273680248e+00 8.895557359965194921e-01 4.814966962758335245e-01 1.009055329061280704e+00 0.000000000000000000e+00 0.000000000000000000e+00 0.000000000000000000e+00 1.442988623459288640e-15 -3.870726355621761580e-15 0.000000000000000000e+00 3.082651619940605294e-15 9.666208675290968962e-16 0.000000000000000000e+00 8.128222120090164814e-17 -2.233341480910048921e-16 7.164614570536356236e-16 0.000000000000000000e+00 0.000000000000000000e+00 0.000000000000000000e+00 0.000000000000000000e+00 -1.291871009057517744e-15 -6.010268129022954828e-15 0.000000000000000000e+00 9.243151919335969604e-16 -6.398068757270959835e-15 8.128222120090164814e-17 -2.233341480910048921e-16 7.164614570536356236e-16 0.000000000000000000e+00 -2.296024834783136715e-15 -2.803706092137461487e-15 0.000000000000000000e+00 5.459505375813053578e-16 -3.305844536770309642e-15 0.000000000000000000e+00 1.046214714944323808e-15 1.637717824293324707e-15 8.128222120090164814e-17 -2.233341480910048921e-16 7.164614570536356236e-16 0.000000000000000000e+00 0.000000000000000000e+00 0.000000000000000000e+00 0.000000000000000000e+00 -2.676500619780571528e-15 -5.659165153455832486e-15 0.000000000000000000e+00 2.636572894482080509e-15 -7.091779051031592232e-15 8.128222120090164814e-17 -2.233341480910048921e-16 7.164614570536356236e-16 0.000000000000000000e+00 0.000000000000000000e+00 0.000000000000000000e+00 0.000000000000000000e+00 2.594070959585070790e-15 -1.494823285002311265e-15 0.000000000000000000e+00 2.566995818108186578e-15 -1.098015742740827815e-15
2.999942183537978622e+02 -1.614972647626199955e-03 6.314608293264716531e-03 -1.247391298560506304e-02 -1.301519579406466669e-02 -3.681910371694076256e-02 5.086393439857236909e-02 3.300592847334484024e-03 6.439875107734244208e-02 -4.833902682935910244e-03 2.420961660043283170e-03 8.394550239274545245e-03 2.791499714267726365e-03 1.610457226199232773e-03 8.081689651808153865e-03 -1.373390864895808992e-05 6.317340351299105539e-03 6.088694825039873970e-02 4.281037726201342847e-02 1.523593940972013151e-02 -6.707090854851117945e-02 -7.112418339172854207e-04 -1.916296348963777985e-02 2.438819917386567115e-02 2.111320655974237293e-02 5.068332268347201276e-03 -5.638367430646983730e-02 4.317793177223152278e-03 -6.204618057864143125e-05 -1.364480651274663746e-02 7.004079323338542433e-03 9.831581485449118394e-05 -2.286614182092959469e-02 -4.124485273935826063e-03 -3.911817956159997257e-04 5.991072460802766668e-03 -4.185531989191745156e-03 3.783801245729134192e-05 7.353683951601534298e-03 -8.096931046666115683e-02 -1.159725104946432613e-02 1.042947721788143184e-01 -6.756424089554474710e-02 2.085337987495800016e-02 1.184249258722655795e-01 2.186106158810986050e-02 -6.331328787630557953e-02 -1.746198370893663893e-02 1.027862576080021406e-01 1.606703154312047188e-01 2.372404443899784818e-03 3.141095525989415216e-02 -6.416939521320180750e-02 1.583651340461224993e-02 0.000000000000000000e+00 0.000000000000000000e+00 0.000000000000000000e+00 3.010692171713176744e-16 -5.678255867729521890e-15 0.000000000000000000e+00 -7.855960832107343113e-15 -3.226666259010801076e-16 0.000000000000000000e+00 2.112277047359259936e-15 6.558217784380357553e-15 -1.536451872974587799e-15 0.000000000000000000e+00 0.000000000000000000e+00 0.000000000000000000e+00 0.000000000000000000e+00 6.875776240615541620e-16 -9.461497090853381193e-16 0.000000000000000000e+00 3.679556333985743635e-16 4.661317265738101927e-15 2.112277047359259936e-15 6.558217784380357553e-15 -1.536451872974587799e-15 0.000000000000000000e+00 8.590445796472537225e-15 1.047275092172443087e-15 0.000000000000000000e+00 4.494981869029731835e-15 4.561384890712623696e-15 0.000000000000000000e+00 1.625024754299674786e-15 4.950811100769340026e-16 2.112277047359259936e-15 6.558217784380357553e-15 -1.536451872974587799e-15 0.000000000000000000e+00 0.000000000000000000e+00 0.000000000000000000e+00 0.000000000000000000e+00 -1.885804266993934307e-15 1.646806762311167035e-15 0.000000000000000000e+00 -4.233141133522126667e-16 6.783322149560062880e-15 2.112277047359259936e-15 6.558217784380357553e-15 -1.536451872974587799e-15 0.000000000000000000e+00 0.000000000000000000e+00 0.000000000000000000e+00 0.000000000000000000e+00 -3.663470293089470685e-16 1.074383363632315346e-14 0.000000000000000000e+00 -7.104031254107536571e-16 -1.652497281390267582e-15 -6.557412338935172946e-02 -1.678288454477435895e-02 9.585414931263439020e-02 7.394300480776581919e-02 -5.095730629683319773e-02 -3.320774677174759271e-02 -1.602259650953839376e+00 -2.287636462351641808e-01 -1.556533200365662228e+00 1.164186595032274285e+00 3.813729280331972227e-01 1.275290381583003452e+00 0.000000000000000000e+00 0.000000000000000000e+00 0.000000000000000000e+00 5.404054073898827463e-15 -3.749966047189782021e-15 0.000000000000000000e+00 7.055186525328846136e-15 1.468861240161922125e-15 0.000000000000000000e+00 -3.589705390034155705e-17 4.791471873277331105e-16 2.949638028299722241e-15 0.000000000000000000e+00 0.000000000000000000e+00 0.000000000000000000e+00 0.000000000000000000e+00 4.080012691045470669e-16 -9.216507982513187703e-15 0.000000000000000000e+00 2.328034678621638753e-15 -8.493998555562098731e-15 -3.589705390034155705e-17 4.791471873277331105e-16 2.949638028299722241e-15 0.000000000000000000e+00 -5.191034353548209843e-15 -4.604846148138203634e-15 0.000000000000000000e+00 1.003363943548848435e-15 -5.288888888189511411e-15 0.000000000000000000e+00 1.256102800658498414e-15 -1.589655541084542631e-16 -3.589705390034155705e-17 4.791471873277331105e-16 2.949638028299722241e-15 0.000000000000000000e+00 0.000000000000000000e+00 0.000000000000000000e+00 0.000000000000000000e+00 -2.551278373479332762e-15 -6.685851263042298223e-15 0.000000000000000000e+00 1.811164069008343946e-15 -6.198686609863996014e-15 -3.589705390034155705e-17 4.791471873277331105e-16 2.949638028299722241e-15 0.000000000000000000e+00 0.000000000000000000e+00 0.000000000000000000e+00 0.000000000000000000e+00 3.167560629027859123e-15 -4.702470422098020535e-15 0.000000000000000000e+00 3.784897127223390415e-15 1.054258647793970736e-15
2.999935872225222511e+02 6.164716953503136245e-04 6.341987284777222088e-03 -1.092786379865361840e-02 -1.882670769798194463e-02 -4.118520682907904351e-02 6.682345701822312023e-02 2.688253078211599780e-03 8.224620409031586921e-02 -1.434924008524272876e-02 -5.876923107529644953e-03 1.548790380531371406e-02 1.557783485951884069e-03 9.310692265051944555e-03 4.910344030513796865e-03 8.156977385363115701e-03 1.173075131070077867e-02 5.718071199960872431e-02 3.002146812815645674e-02 8.923340721049196136e-03 -4.740220317364251396e-02 -7.015309033532407491e-04 -1.677437306281108487e-02 2.460063534410872332e-02 4.264706558026324854e-03 3.913496004682150316e-03 -2.257786216231902690e-02 6.037522242747032355e-04 7.831679365302828813e-04 -5.700341622899605422e-03 8.127871312838628320e-04 9.142741753203957556e-04 -9.765218154471878853e-03 -2.863559664883430327e-03 -5.048173069270512269e-04 2.978247142310226810e-03 -2.650344051421670965e-03 1.533017508124833134e-04 2.047040461806815849e-03 -5.599372321002095421e-02 -1.021362356296533040e-02 5.639773619695377660e-02 -4.511389605361449534e-02 7.720921914321030727e-03 6.298506296569816865e-02 -4.740367245967446602e-03 -2.996142646675778801e-02 -9.250356977898784028e-03 7.156544349020300955e-02 4.706348889540833830e-02 1.511321240711971728e-02 -2.099309205347270162e-03 -5.335892344555458189e-02 1.027557263869542659e-03 0.000000000000000000e+00 0.000000000000000000e+00 0.000000000000000000e+00 -1.065569077337730568e-15 -7.576611597235252734e-15 0.000000000000000000e+00 -4.974960112355884840e-15 -8.407948791705516196e-16 0.000000000000000000e+00 1.354802941741017703e-15 5.779339554444172387e-15 -1.478460341836165566e-15 0.000000000000000000e+00 0.000000000000000000e+00 0.000000000000000000e+00 0.000000000000000000e+00 5.641972328284143148e-16 -1.293272193003426781e-15 0.000000000000000000e+00 1.044236956083416183e-15 5.757722815080736260e-15 1.354802941741017703e-15 5.779339554444172387e-15 -1.478460341836165566e-15 0.000000000000000000e+00 7.444271711732679591e-15 2.120424721675956084e-15 0.000000000000000000e+00 3.789762929269113804e-15 4.520513271124043141e-15 0.000000000000000000e+00 2.396179640858980270e-15 8.040645588720904853e-16 1.354802941741017703e-15 5.779339554444172387e-15 -1.478460341836165566e-15 0.000000000000000000e+00 0.000000000000000000e+00 0.000000000000000000e+00 0.000000000000000000e+00 -2.149835155137494834e-15 1.935300104085547402e-15 0.000000000000000000e+00 -6.334429633257023399e-16 4.158043748933277958e-15 1.354802941741017703e-15 5.779339554444172387e-15 -1.478460341836165566e-15 0.000000000000000000e+00 0.000000000000000000e+00 0.000000000000000000e+00 0.000000000000000000e+00 -1.332646312150450353e-15 9.779592495775772486e-15 0.000000000000000000e+00 6.440804441457778513e-16 8.795946932146795849e-16 -3.926460604979223334e-02 -1.134257294567932346e-02 5.161052321089019956e-02 3.164270320993143454e-02 -3.074776492973721465e-02 -1.283314611484806869e-02 -1.197110803736529672e+00 -2.344333896289397257e-01 -1.186175476398474871e+00 1.013736260376524978e+00 2.497573542053967421e-01 1.091026455225427405e+00 0.000000000000000000e+00 0.000000000000000000e+00 0.000000000000000000e+00 6.927286061467516876e-15 -2.693861140822093000e-15 0.000000000000000000e+00 7.289462567370693724e-15 1.662796845471762977e-15 0.000000000000000000e+00 -9.599675845132015657e-16 7.868912925944173980e-16 4.021237422903340550e-15 0.000000000000000000e+00 0.000000000000000000e+00 0.000000000000000000e+00 0.000000000000000000e+00 1.004740075272126266e-15 -8.819452188862424477e-15 0.000000000000000000e+00 2.501593189660000463e-15 -6.862395039443744741e-15 -9.599675845132015657e-16 7.868912925944173980e-16 4.021237422903340550e-15 0.000000000000000000e+00 -5.276974384259625874e-15 -3.909337208830648058e-15 0.000000000000000000e+00 4.626407774735894475e-16 -5.385957751144544156e-15 0.000000000000000000e+00 1.147969719317973587e-15 2.142275803474952493e-16 -9.599675845132015657e-16 7.868912925944173980e-16 4.021237422903340550e-15 0.000000000000000000e+00 0.000000000000000000e+00 0.000000000000000000e+00 0.000000000000000000e+00 -1.173302786739419409e-15 -6.034832060789188196e-15 0.000000000000000000e+00 8.466311523402723344e-16 -3.410324056868854700e-15 -9.599675845132015657e-16 7.868912925944173980e-16 4.021237422903340550e-15 0.000000000000000000e+00 0.000000000000000000e+00 0.000000000000000000e+00 0.000000000000000000e+00 3.150425424977355188e-15 -5.093122688678966946e-15 0.000000000000000000e+00 4.083416616609872050e-15 1.512446763571728622e-15
